<?xml version="1.0" standalone="no"?>
<!DOCTYPE svg PUBLIC "-//W3C//DTD SVG 20010904//EN"
 "http://www.w3.org/TR/2001/REC-SVG-20010904/DTD/svg10.dtd">
<svg version="1.0" xmlns="http://www.w3.org/2000/svg"
 width="200.000000pt" height="200.000000pt" viewBox="0 0 200.000000 200.000000"
 preserveAspectRatio="xMidYMid meet">
<metadata>
Created by potrace 1.11, written by Peter Selinger 2001-2013
</metadata>
<g transform="translate(0.000000,200.000000) scale(0.100000,-0.100000)"
fill="#000000" stroke="none">
<path d="M0 1978 c0 -20 1 -21 20 -3 11 10 20 20 20 22 0 1 -9 3 -20 3 -14 0
-20 -7 -20 -22z"/>
<path d="M179 1983 c0 -10 -2 -30 -3 -44 -1 -24 1 -26 41 -26 33 0 43 4 47 21
3 11 0 26 -5 33 -6 6 -8 17 -4 23 3 5 1 10 -4 10 -6 0 -11 -9 -11 -20 0 -23
-15 -27 -23 -6 -3 8 -1 17 6 20 7 2 0 5 -15 5 -20 1 -28 -4 -29 -16z"/>
<path d="M481 1978 c-6 -10 -11 -26 -11 -36 0 -11 -9 -27 -20 -37 -20 -18 -60
-93 -60 -113 0 -6 11 -11 24 -10 14 1 23 5 20 9 -2 4 0 10 5 13 5 3 12 22 16
43 4 25 21 50 52 81 41 40 50 44 83 39 27 -3 41 0 51 12 13 15 8 16 -67 17
-68 0 -83 -3 -93 -18z"/>
<path d="M883 1993 c9 -2 23 -2 30 0 6 3 -1 5 -18 5 -16 0 -22 -2 -12 -5z"/>
<path d="M950 1980 c12 -23 35 -22 35 1 0 8 -10 15 -23 17 -21 3 -22 1 -12
-18z"/>
<path d="M1002 1988 c3 -7 13 -15 22 -16 12 -3 17 1 14 10 -3 7 -13 15 -22 16
-12 3 -17 -1 -14 -10z"/>
<path d="M1148 1993 c7 -3 16 -2 19 1 4 3 -2 6 -13 5 -11 0 -14 -3 -6 -6z"/>
<path d="M1915 1983 c3 -10 9 -30 12 -45 5 -24 10 -28 39 -28 34 0 34 1 34 45
l0 45 -46 0 c-40 0 -45 -2 -39 -17z"/>
<path d="M1068 1983 c7 -3 16 -2 19 1 4 3 -2 6 -13 5 -11 0 -14 -3 -6 -6z"/>
<path d="M1255 1969 c-4 -5 0 -18 9 -28 9 -10 16 -25 16 -34 0 -9 7 -17 15
-17 8 0 15 9 15 20 0 11 -7 20 -15 20 -9 0 -15 9 -15 25 0 26 -14 33 -25 14z"/>
<path d="M760 1941 c0 -14 18 -23 31 -15 8 4 7 9 -2 15 -18 11 -29 11 -29 0z"/>
<path d="M1115 1940 c-3 -5 3 -10 15 -10 12 0 18 5 15 10 -3 6 -10 10 -15 10
-5 0 -12 -4 -15 -10z"/>
<path d="M837 1912 c-13 -14 -15 -22 -7 -27 16 -10 33 9 28 30 -3 16 -5 15
-21 -3z"/>
<path d="M103 1902 c-8 -23 -44 -51 -64 -52 -9 0 -23 -8 -30 -17 -13 -15 -11
-16 11 -9 14 4 33 9 44 11 10 2 25 14 33 25 19 27 47 27 38 0 -7 -21 1 -25 24
-11 19 12 6 44 -25 58 -21 10 -26 9 -31 -5z"/>
<path d="M315 1900 c-3 -5 3 -10 15 -10 12 0 18 5 15 10 -3 6 -10 10 -15 10
-5 0 -12 -4 -15 -10z"/>
<path d="M681 1884 c0 -11 3 -14 6 -6 3 7 2 16 -1 19 -3 4 -6 -2 -5 -13z"/>
<path d="M734 1885 c-11 -27 2 -37 14 -11 7 16 8 26 1 26 -5 0 -12 -7 -15 -15z"/>
<path d="M1410 1880 c0 -5 5 -10 11 -10 5 0 7 5 4 10 -3 6 -8 10 -11 10 -2 0
-4 -4 -4 -10z"/>
<path d="M1672 1860 c-3 -8 -10 -19 -16 -23 -6 -4 0 -7 14 -5 l25 3 3 -117 c3
-90 0 -118 -9 -118 -10 0 -10 -3 -1 -12 7 -7 12 -32 12 -57 0 -42 -1 -43 -18
-28 -10 10 -22 14 -25 10 -4 -3 -7 0 -7 9 0 10 -8 13 -29 10 -22 -3 -28 -8
-24 -23 7 -26 -15 -24 -37 4 -17 20 -19 21 -26 4 -5 -13 2 -26 27 -47 19 -16
39 -29 45 -30 7 0 14 -9 17 -20 6 -23 37 -27 37 -5 0 8 6 15 14 15 8 0 21 3
30 6 11 4 16 1 16 -11 0 -14 3 -15 14 -6 22 18 84 21 101 5 18 -19 22 -18 28
8 7 26 0 41 -16 31 -16 -10 -57 -11 -57 -1 0 4 12 8 26 8 21 0 25 4 21 19 -4
15 3 22 26 31 27 9 34 8 47 -8 8 -11 27 -22 41 -26 17 -3 26 -12 25 -22 0 -9
5 -19 12 -21 9 -4 12 15 12 71 0 44 -4 76 -10 76 -5 0 -10 -8 -10 -17 -1 -16
-2 -16 -15 1 -8 11 -18 17 -21 13 -4 -4 -1 -13 5 -21 15 -18 -5 -34 -22 -17
-15 15 -36 14 -53 -4 -15 -14 -54 -21 -54 -10 0 19 49 55 70 53 19 -2 25 2 25
15 0 26 33 48 62 41 21 -6 23 -3 23 34 0 23 -7 47 -15 56 -19 19 -19 33 1 44
15 8 15 10 0 15 -23 9 -38 1 -61 -33 -21 -32 -35 -24 -27 16 3 15 15 29 28 34
13 5 24 14 24 20 0 6 10 8 25 4 22 -5 25 -3 25 18 l0 25 -161 -1 c-134 -1
-162 -4 -167 -16z m198 -101 c0 -6 -4 -7 -10 -4 -5 3 -10 11 -10 16 0 6 5 7
10 4 6 -3 10 -11 10 -16z m-20 -71 c0 19 44 11 48 -9 2 -12 -6 -18 -33 -21
-40 -5 -48 2 -39 27 5 13 8 14 15 3 7 -11 9 -11 9 0z m100 -7 c0 -6 -4 -13
-10 -16 -5 -3 -10 1 -10 9 0 9 5 16 10 16 6 0 10 -4 10 -9z m-180 -37 c0 -8
-4 -12 -10 -9 -5 3 -10 10 -10 16 0 5 5 9 10 9 6 0 10 -7 10 -16z m200 -118
c0 -3 -4 -8 -10 -11 -5 -3 -10 -1 -10 4 0 6 5 11 10 11 6 0 10 -2 10 -4z"/>
<path d="M800 1855 c0 -8 2 -15 4 -15 2 0 6 7 10 15 3 8 1 15 -4 15 -6 0 -10
-7 -10 -15z"/>
<path d="M492 1843 c2 -9 9 -18 16 -21 18 -6 15 25 -4 32 -11 4 -14 1 -12 -11z"/>
<path d="M280 1839 c0 -5 5 -7 10 -4 6 3 10 8 10 11 0 2 -4 4 -10 4 -5 0 -10
-5 -10 -11z"/>
<path d="M1600 1815 c-8 -9 -8 -15 -2 -15 12 0 26 19 19 26 -2 2 -10 -2 -17
-11z"/>
<path d="M50 1810 c0 -5 4 -10 9 -10 6 0 13 5 16 10 3 6 -1 10 -9 10 -9 0 -16
-4 -16 -10z"/>
<path d="M110 1810 c0 -5 5 -10 10 -10 6 0 10 5 10 10 0 6 -4 10 -10 10 -5 0
-10 -4 -10 -10z"/>
<path d="M170 1810 c0 -5 5 -10 10 -10 6 0 10 5 10 10 0 6 -4 10 -10 10 -5 0
-10 -4 -10 -10z"/>
<path d="M480 1810 c0 -5 5 -10 10 -10 6 0 10 5 10 10 0 6 -4 10 -10 10 -5 0
-10 -4 -10 -10z"/>
<path d="M1300 1810 c0 -5 5 -10 10 -10 6 0 10 5 10 10 0 6 -4 10 -10 10 -5 0
-10 -4 -10 -10z"/>
<path d="M205 1790 c-3 -5 -1 -10 4 -10 6 0 11 5 11 10 0 6 -2 10 -4 10 -3 0
-8 -4 -11 -10z"/>
<path d="M1375 1790 c-3 -5 3 -10 14 -10 14 0 21 -6 21 -19 0 -11 5 -23 10
-26 18 -11 11 37 -7 51 -22 16 -30 17 -38 4z"/>
<path d="M330 1781 c0 -5 7 -11 16 -13 13 -2 9 -12 -20 -47 -21 -24 -44 -57
-51 -71 -8 -15 -24 -30 -36 -33 -13 -3 -18 -10 -14 -17 5 -9 1 -10 -14 -5 -14
4 -23 1 -27 -9 -3 -9 -11 -16 -16 -16 -6 0 -8 7 -4 15 8 21 -15 18 -44 -6 -17
-14 -21 -22 -12 -26 6 -2 12 -17 13 -31 l1 -27 11 25 c9 18 19 24 35 22 12 -2
22 -9 22 -15 0 -20 -30 -57 -46 -57 -10 0 -13 -7 -9 -23 12 -48 -72 -86 -89
-40 -6 14 -9 13 -28 -7 -18 -19 -19 -26 -9 -43 8 -12 9 -22 3 -26 -5 -3 -10
-44 -11 -91 -1 -81 0 -86 28 -116 26 -28 36 -31 91 -33 69 -2 72 9 12 37 -39
18 -53 49 -30 63 10 7 9 9 -4 9 -10 0 -18 4 -18 9 0 5 -8 11 -17 13 -16 3 -16
5 3 24 11 11 26 35 34 53 10 25 15 29 21 18 5 -8 20 -18 34 -21 31 -8 32 -22
3 -29 -18 -5 -19 -8 -8 -21 7 -9 19 -16 27 -16 7 0 16 -7 19 -15 8 -19 24 -19
24 0 0 12 8 14 32 10 18 -3 38 -11 45 -17 8 -6 16 -8 20 -5 9 10 43 -12 43
-28 0 -16 -30 -55 -42 -55 -4 0 -5 7 -2 15 4 8 2 15 -4 15 -5 0 -12 -9 -15
-20 -4 -15 -14 -20 -36 -20 -21 0 -31 -5 -31 -15 0 -9 9 -15 21 -15 18 0 19
-2 9 -15 -10 -12 -9 -15 7 -15 48 0 113 14 113 24 0 13 98 15 118 3 6 -5 12
-19 12 -33 0 -17 -5 -24 -20 -24 -11 0 -20 -5 -20 -10 0 -6 14 -9 32 -8 28 3
32 0 33 -21 0 -17 -6 -25 -22 -27 -12 -2 -28 -5 -35 -6 -7 -2 -13 6 -13 17 0
29 -41 60 -60 45 -7 -6 -12 -17 -9 -24 3 -7 -2 -19 -11 -26 -8 -7 -15 -19 -15
-26 0 -8 -7 -14 -15 -14 -16 0 -28 -36 -23 -66 3 -17 -3 -19 -54 -18 -32 1
-58 -2 -58 -7 0 -5 -9 -9 -20 -9 -31 0 -36 -28 -10 -50 13 -11 27 -20 32 -20
4 0 8 -6 8 -14 0 -21 -34 -29 -83 -21 -23 4 -65 9 -94 10 l-53 2 0 -363 0
-364 1000 0 1000 0 0 76 c0 61 -4 81 -20 101 -14 18 -20 41 -20 78 0 48 2 53
20 48 19 -5 20 0 20 86 0 54 -4 91 -10 91 -5 0 -10 -4 -10 -9 0 -22 -38 4 -48
33 -19 53 -16 59 28 54 l40 -4 0 148 c0 125 -2 148 -15 148 -8 0 -15 -7 -15
-16 0 -8 5 -12 10 -9 6 3 10 1 10 -4 0 -6 -6 -11 -14 -11 -8 0 -17 15 -21 37
-5 30 -3 40 12 50 13 10 15 16 6 21 -14 9 -35 61 -28 71 2 5 16 6 30 3 l25 -4
0 176 c0 169 -1 176 -20 176 -11 0 -20 5 -20 11 0 6 9 8 20 4 16 -5 20 -2 20
19 0 14 -5 26 -11 26 -6 0 -9 7 -5 15 5 15 -26 39 -38 28 -3 -3 -6 -2 -6 3 -1
31 -70 70 -70 40 0 -9 8 -16 19 -16 20 0 45 -23 35 -33 -3 -3 -12 -3 -19 -1
-7 3 -16 1 -19 -5 -4 -6 7 -14 25 -19 42 -10 48 -28 12 -35 -15 -3 -38 -8 -50
-12 -18 -6 -25 -2 -32 18 -12 30 -39 43 -48 21 -3 -8 -12 -13 -21 -9 -17 6
-44 -13 -36 -26 3 -5 -2 -9 -11 -9 -9 0 -14 4 -11 9 9 13 -52 7 -66 -7 -9 -9
-9 -12 0 -12 7 0 12 -5 12 -10 0 -6 -8 -10 -17 -8 -10 2 -19 -4 -21 -13 -3
-14 19 -29 61 -43 19 -6 24 -51 7 -61 -18 -11 -72 6 -77 25 -3 10 -25 26 -51
36 -26 9 -73 31 -104 49 -44 24 -55 34 -46 43 7 7 18 12 25 12 7 0 13 5 13 11
0 7 8 18 18 25 16 13 16 14 -5 20 -26 7 -31 34 -8 34 8 0 15 4 15 9 0 13 -39
9 -67 -7 -26 -14 -30 -32 -8 -32 17 0 19 -9 7 -28 -5 -7 -16 -10 -25 -6 -10 4
-17 1 -17 -6 0 -7 -7 -10 -15 -7 -21 8 -29 -10 -9 -21 12 -7 8 -9 -17 -10 -17
0 -36 -7 -40 -14 -13 -19 -11 -28 5 -22 8 3 17 1 21 -5 3 -6 15 -11 25 -11 19
0 70 -57 70 -78 0 -7 4 -12 9 -12 5 0 12 -9 16 -19 7 -22 74 -64 117 -75 18
-4 30 -15 34 -31 9 -35 -3 -47 -39 -40 -58 12 -65 15 -72 38 -6 19 -8 19 -12
5 -2 -10 -9 -18 -14 -18 -6 0 -8 4 -4 9 3 6 -8 5 -27 -1 -18 -5 -38 -10 -45
-11 -6 0 -9 -6 -6 -13 3 -8 -13 -4 -42 9 -37 17 -43 23 -28 28 17 7 14 10 -17
13 -8 0 -17 12 -21 26 -5 22 -7 23 -14 7 -5 -12 -2 -22 11 -32 23 -17 5 -19
-31 -3 -14 6 -25 19 -25 28 0 9 -5 21 -11 27 -16 16 -2 81 20 93 18 9 46 102
54 180 4 31 5 32 12 13 9 -27 6 -27 41 -8 16 8 23 15 17 15 -14 0 -28 12 -102
82 -27 26 -46 50 -42 53 3 4 2 5 -4 4 -5 -1 -28 3 -50 9 -65 19 -114 15 -151
-13 -26 -20 -37 -23 -57 -16 -19 8 -27 6 -31 -5 -3 -8 1 -14 9 -14 19 0 19
-24 0 -40 -8 -7 -12 -16 -9 -21 7 -12 -55 -71 -69 -66 -7 2 -13 13 -15 25 -4
27 -19 29 -27 3 -11 -36 23 -73 49 -52 6 4 22 8 36 6 23 -1 25 -6 30 -63 3
-33 11 -67 18 -74 14 -14 16 -42 2 -33 -5 3 -7 0 -4 -8 7 -19 -14 -33 -29 -18
-7 7 -5 17 9 32 10 13 14 19 8 16 -7 -4 -17 0 -24 8 -7 8 -21 15 -31 15 -14 0
-19 7 -19 25 0 33 -25 42 -60 22 -15 -9 -30 -14 -34 -10 -3 3 -15 -2 -26 -12
l-21 -19 27 -14 c41 -21 16 -31 -56 -21 -66 9 -100 32 -100 66 0 12 7 13 28 8
30 -8 37 -9 70 -7 12 1 22 8 22 15 1 21 38 57 53 51 19 -7 34 16 17 26 -7 4
-20 5 -30 3 -23 -6 -35 14 -20 32 10 12 9 15 -3 15 -20 0 -47 -27 -47 -48 0
-13 -2 -14 -12 -3 -10 11 -10 14 0 18 6 3 12 12 12 20 0 10 -6 13 -16 9 -9 -4
-23 -1 -30 5 -8 6 -23 9 -35 6 -15 -4 -23 1 -31 19 -8 17 -18 24 -30 21 -10
-3 -21 -1 -24 4 -9 14 -34 10 -34 -5 0 -8 10 -22 23 -32 16 -12 17 -15 4 -10
-10 3 -26 6 -35 6 -9 0 -26 8 -37 16 -19 14 -19 16 -2 28 9 7 17 15 17 17 0 3
-25 18 -55 34 -30 15 -55 33 -55 38 0 6 11 25 25 43 14 18 25 37 25 43 0 6 11
18 25 27 32 21 32 36 -2 52 -32 14 -43 15 -43 3z m-80 -231 c0 -5 7 -10 15
-10 8 0 15 -9 15 -20 0 -11 -4 -20 -10 -20 -14 0 -50 42 -44 52 7 11 24 10 24
-2z m90 -19 c0 -17 -18 -21 -24 -6 -3 9 0 15 9 15 8 0 15 -4 15 -9z m-56 -66
c17 -13 17 -14 -10 -20 -16 -4 -34 -8 -41 -10 -20 -6 -24 12 -7 29 19 19 33
20 58 1z m84 -75 c23 -21 29 -40 13 -40 -5 0 -15 10 -23 22 -13 19 -18 21 -31
10 -18 -15 -37 -8 -37 14 0 21 53 17 78 -6z m-178 -4 c0 -3 -4 -8 -10 -11 -5
-3 -10 -1 -10 4 0 6 5 11 10 11 6 0 10 -2 10 -4z m1633 -40 c18 -14 23 -46 7
-46 -5 0 -10 -7 -10 -15 0 -19 -9 -19 -32 2 -10 9 -18 11 -18 5 0 -5 -9 -8
-20 -5 -13 3 -20 0 -20 -8 -1 -10 -4 -9 -14 3 -7 10 -16 15 -20 11 -4 -4 -11
-1 -16 7 -15 25 7 38 55 32 35 -3 46 -1 51 12 7 19 13 20 37 2z m-417 -31 c4
-8 12 -15 20 -15 8 0 14 -4 14 -10 0 -16 -15 -11 -46 15 -23 20 -25 25 -11 25
10 0 20 -7 23 -15z m519 -11 c19 -30 13 -44 -10 -21 -18 19 -45 12 -45 -12 -1
-13 -2 -13 -12 3 -8 15 -7 21 6 28 9 5 14 13 11 19 -14 22 34 6 50 -17z m-415
-49 c33 -10 80 -46 80 -61 0 -26 -70 -33 -90 -9 -7 8 -9 15 -4 15 5 0 1 5 -10
11 -15 9 -16 13 -5 20 11 7 10 9 -4 9 -10 0 -16 4 -12 9 3 5 1 12 -5 16 -5 3
-10 11 -10 17 0 6 7 5 18 -4 9 -9 28 -19 42 -23z m-1281 16 c9 -6 10 -11 2
-15 -13 -8 -31 1 -31 15 0 11 11 11 29 0z m339 -12 c16 -26 7 -37 -42 -54 -29
-10 -39 -10 -56 2 -11 8 -20 22 -20 31 0 14 -4 13 -18 -6 -16 -20 -20 -21 -52
-11 -19 7 -41 13 -47 15 -7 2 -13 9 -13 15 0 8 15 10 48 6 26 -3 54 -2 62 3 8
5 17 5 20 1 3 -4 22 -11 43 -14 34 -5 37 -4 32 14 -9 27 26 26 43 -2z m1332
-64 c0 -16 -9 -19 -36 -8 -16 6 -16 7 2 14 29 11 34 10 34 -6z m-1816 -60 c3
-8 1 -17 -3 -19 -13 -8 -45 20 -37 32 8 14 33 5 40 -13z m862 -82 c-4 -4 -46
92 -45 104 0 4 11 -16 25 -46 13 -30 23 -56 20 -58z m231 65 c-3 -7 -5 -2 -5
12 0 14 2 19 5 13 2 -7 2 -19 0 -25z m497 -23 c6 -16 -3 -19 -28 -9 -22 8 -20
24 3 24 10 0 21 -7 25 -15z m-1359 -15 c3 -5 -3 -10 -15 -10 -12 0 -18 5 -15
10 3 6 10 10 15 10 5 0 12 -4 15 -10z m624 -65 c0 -5 -6 1 -14 15 -8 14 -14
30 -14 35 0 6 6 -1 14 -15 8 -14 14 -29 14 -35z m-275 -17 c9 -28 14 -53 11
-56 -2 -3 -7 3 -11 12 -3 9 -10 14 -15 11 -4 -3 2 -22 13 -42 l22 -36 -27 18
c-15 9 -31 31 -36 49 -8 28 -9 28 -10 6 0 -14 6 -41 13 -61 7 -20 9 -44 5 -55
-7 -18 -8 -17 -8 3 -1 12 -6 25 -11 28 -6 4 -8 11 -5 16 4 5 0 9 -9 9 -8 0
-21 3 -30 6 -9 3 -16 1 -16 -5 0 -6 -11 -29 -25 -51 -31 -50 -31 -64 0 -78 34
-16 50 -15 65 3 7 9 15 13 18 10 9 -8 -31 -34 -53 -35 -19 -1 -19 -2 4 -20 13
-11 30 -20 38 -20 26 0 7 -25 -21 -28 -20 -3 -37 5 -57 24 -16 15 -31 25 -35
22 -7 -8 66 -77 95 -90 10 -4 11 -7 4 -7 -27 -2 -12 -29 19 -35 17 -3 28 -9
25 -12 -3 -4 -20 -1 -37 4 -28 10 -37 8 -85 -24 l-55 -35 0 24 c0 24 8 30 75
52 l20 6 -20 15 c-11 8 -31 18 -44 21 -21 5 -23 10 -19 57 3 33 19 81 46 136
31 62 38 86 29 92 -11 7 -8 9 9 7 3 0 24 25 47 55 22 31 44 56 47 56 4 0 14
-23 24 -52z m1036 -4 c0 -30 -8 -59 -21 -81 -28 -45 -34 -36 -15 25 10 34 11
52 4 54 -12 4 11 48 24 48 5 0 8 -21 8 -46z m65 -37 c4 -23 5 -57 3 -75 l-3
-33 -24 22 c-20 19 -22 28 -17 66 10 77 31 87 41 20z m-315 2 c15 -35 19 -89
8 -89 -5 0 -8 -5 -8 -11 0 -8 5 -7 15 1 9 8 13 21 10 34 -5 17 -4 18 4 6 12
-17 15 -51 4 -48 -17 3 -43 -15 -43 -29 0 -13 -3 -13 -15 -3 -10 8 -12 17 -6
24 25 30 12 87 -15 65 -8 -6 -14 -9 -14 -5 0 15 33 86 40 86 4 0 13 -14 20
-31z m-383 -25 c-3 -3 -12 -4 -19 -1 -8 3 -5 6 6 6 11 1 17 -2 13 -5z m797
-49 c-4 -8 -8 -15 -10 -15 -2 0 -4 7 -4 15 0 8 4 15 10 15 5 0 7 -7 4 -15z
m-638 -82 l-26 -27 25 -26 c30 -32 31 -40 4 -40 -11 0 -17 4 -14 10 9 14 -14
42 -27 34 -5 -3 -7 -17 -4 -30 5 -20 3 -24 -16 -23 -17 1 -19 2 -5 6 10 3 14
9 10 16 -4 7 -9 21 -10 32 -1 11 -5 32 -8 48 -4 22 -1 27 16 27 17 0 19 -4 13
-22 -4 -13 -9 -30 -11 -38 -3 -8 7 -2 21 13 15 16 24 32 21 37 -5 8 25 20 34
14 1 -2 -9 -15 -23 -31z m-659 -8 c16 4 22 2 18 -5 -14 -22 -65 -3 -65 25 0 5
5 2 11 -8 8 -14 18 -17 36 -12z m116 -25 c-3 -12 -8 -19 -11 -16 -5 6 5 36 12
36 2 0 2 -9 -1 -20z m602 -11 c-5 -14 -1 -25 12 -36 17 -14 17 -14 -1 -9 -16
5 -18 2 -14 -24 4 -25 1 -30 -16 -29 -12 0 -16 3 -10 5 15 6 7 96 -9 106 -7 5
-1 8 16 8 24 0 27 -3 22 -21z m-965 -9 c0 -5 -7 -10 -15 -10 -8 0 -15 5 -15
10 0 6 7 10 15 10 8 0 15 -4 15 -10z m1260 -124 c0 -6 -6 -1 -14 9 -12 16 -19
17 -65 8 -28 -6 -51 -7 -51 -4 0 13 17 27 54 46 21 11 41 26 44 34 5 13 31
-64 32 -93z m180 -38 c0 -48 -19 -110 -33 -105 -6 2 -16 18 -21 35 -7 26 -5
38 15 67 30 43 39 44 39 3z m-245 -7 l-60 -6 59 -28 c32 -15 65 -27 73 -27 8
0 11 -4 8 -10 -4 -6 -33 -8 -73 -5 l-67 6 25 -22 c14 -12 24 -26 22 -31 -1 -5
2 -7 8 -3 5 3 13 -1 16 -9 3 -9 12 -16 20 -16 8 0 14 -4 14 -9 0 -12 -75 16
-112 41 -15 10 -29 14 -32 10 -9 -16 15 -84 39 -108 17 -17 19 -24 9 -28 -7
-3 -19 3 -27 14 -7 10 -22 18 -32 17 -12 -1 -24 7 -30 21 -5 12 -13 22 -17 22
-5 0 -8 5 -8 11 0 5 5 7 10 4 12 -8 13 5 1 24 -12 19 -3 41 18 42 13 0 12 2
-4 10 -15 7 -11 7 15 3 19 -3 51 -15 70 -26 l35 -20 -25 21 c-14 11 -28 21
-32 21 -5 0 -8 7 -8 15 0 13 10 15 53 10 l52 -5 -35 17 c-79 40 -76 54 13 51
l62 -1 -60 -6z m-901 -39 c2 -4 -3 -8 -13 -9 -30 -2 -91 -31 -91 -43 0 -6 5
-8 13 -3 14 8 17 9 72 19 22 4 43 11 46 17 4 5 12 6 19 2 9 -6 6 -12 -11 -21
l-24 -13 25 -1 c14 0 32 -4 40 -10 12 -7 12 -12 -4 -29 -17 -19 -17 -19 18
-11 40 9 45 2 16 -25 -10 -9 -19 -20 -18 -24 2 -19 -5 -19 -34 -1 -20 12 -41
17 -58 13 -15 -3 -31 0 -34 6 -4 6 -2 11 5 11 7 0 9 3 6 7 -4 3 10 14 30 24
34 16 35 17 8 11 -16 -4 -50 -7 -75 -7 -43 0 -45 1 -48 31 -3 28 -6 31 -30 26
-43 -8 -19 8 34 22 58 16 101 19 108 8z m1087 -165 c-1 -12 -15 -9 -19 4 -3 6
1 10 8 8 6 -3 11 -8 11 -12z m-1034 -20 c0 -7 -6 -18 -14 -25 -16 -15 -17 -8
-3 19 12 22 17 24 17 6z m-27 -79 c0 -5 -10 -8 -22 -6 -17 2 -24 11 -26 33
l-4 30 26 -24 c14 -14 26 -29 26 -33z m977 27 c-2 -11 -102 -14 -120 -3 -6 4
-20 2 -31 -3 -18 -9 -19 -8 -5 3 19 16 160 18 156 3z m239 -2 c13 -18 19 -53
8 -53 -30 0 -57 44 -37 63 10 10 15 9 29 -10z m-206 -47 c0 -3 -4 -8 -10 -11
-5 -3 -10 -1 -10 4 0 6 5 11 10 11 6 0 10 -2 10 -4z m175 -216 c3 -5 -1 -10
-9 -10 -9 0 -19 0 -23 -1 -4 0 -9 4 -11 10 -5 14 35 14 43 1z"/>
<path d="M585 920 c3 -5 8 -10 11 -10 2 0 4 5 4 10 0 6 -5 10 -11 10 -5 0 -7
-4 -4 -10z"/>
<path d="M786 1768 c8 -29 11 -31 22 -24 15 9 2 46 -15 46 -10 0 -12 -6 -7
-22z"/>
<path d="M72 1753 c-18 -21 -21 -34 -16 -62 4 -20 10 -40 15 -45 15 -17 10
-29 -6 -16 -12 10 -15 9 -15 -6 -1 -18 -1 -18 -15 0 -17 23 -29 16 -21 -12 5
-15 15 -18 48 -17 50 2 58 17 29 56 -11 15 -21 35 -21 43 0 24 22 66 31 60 5
-3 9 2 9 10 0 22 -11 19 -38 -11z"/>
<path d="M266 1765 c-6 -17 9 -29 24 -20 14 9 12 22 -4 28 -8 3 -17 -1 -20 -8z"/>
<path d="M700 1770 c0 -5 5 -10 10 -10 6 0 10 5 10 10 0 6 -4 10 -10 10 -5 0
-10 -4 -10 -10z"/>
<path d="M410 1733 c0 -9 52 -35 58 -29 2 3 -10 12 -27 21 -17 8 -31 12 -31 8z"/>
<path d="M985 1720 c-3 -5 -1 -10 4 -10 6 0 11 5 11 10 0 6 -2 10 -4 10 -3 0
-8 -4 -11 -10z"/>
<path d="M1556 1702 c-3 -6 -1 -14 5 -17 15 -10 25 3 12 16 -7 7 -13 7 -17 1z"/>
<path d="M1630 1700 c0 -5 5 -10 11 -10 5 0 7 5 4 10 -3 6 -8 10 -11 10 -2 0
-4 -4 -4 -10z"/>
<path d="M7 1693 c-4 -3 -7 -15 -7 -25 0 -17 2 -18 15 -4 8 8 15 19 15 25 0
12 -13 15 -23 4z"/>
<path d="M780 1647 c0 -19 -21 -27 -67 -27 -55 0 -30 -13 31 -16 46 -3 55 0
59 16 3 11 -1 24 -9 31 -11 9 -14 8 -14 -4z"/>
<path d="M1038 1638 c9 -9 15 -9 24 0 9 9 7 12 -12 12 -19 0 -21 -3 -12 -12z"/>
<path d="M510 1603 c0 -37 12 -48 38 -34 13 7 22 7 29 0 13 -13 63 17 63 37 0
19 -17 25 -79 27 l-51 2 0 -32z"/>
<path d="M1635 1630 c-8 -12 20 -24 35 -15 6 3 8 11 5 16 -8 12 -32 12 -40 -1z"/>
<path d="M1508 1623 c6 -2 18 -2 25 0 6 3 1 5 -13 5 -14 0 -19 -2 -12 -5z"/>
<path d="M1480 1550 c0 -5 9 -10 20 -10 11 0 20 5 20 10 0 6 -9 10 -20 10 -11
0 -20 -4 -20 -10z"/>
<path d="M1245 1540 c4 -6 11 -8 16 -5 14 9 11 15 -7 15 -8 0 -12 -5 -9 -10z"/>
<path d="M63 1533 c8 -14 -12 -53 -28 -53 -16 0 -19 -9 -7 -26 9 -15 56 -26
76 -18 22 8 20 36 -1 32 -14 -2 -19 5 -21 35 -2 20 -8 37 -13 37 -6 0 -8 -3
-6 -7z"/>
<path d="M820 1524 c0 -14 3 -14 15 -4 8 7 15 14 15 16 0 2 -7 4 -15 4 -8 0
-15 -7 -15 -16z"/>
<path d="M1522 1441 c-11 -7 -11 -9 0 -13 18 -7 39 2 32 13 -6 11 -15 11 -32
0z"/>
<path d="M1578 1408 c-2 -13 -11 -24 -22 -26 -11 -3 -26 -11 -35 -19 -13 -14
-12 -17 10 -34 30 -24 53 -20 57 9 2 14 10 22 23 22 10 0 19 7 19 15 0 8 -7
15 -15 15 -8 0 -15 6 -15 14 0 25 -18 28 -22 4z"/>
<path d="M1260 1375 c0 -8 2 -15 4 -15 2 0 6 7 10 15 3 8 1 15 -4 15 -6 0 -10
-7 -10 -15z"/>
<path d="M840 1350 c0 -5 10 -10 23 -10 18 0 19 2 7 10 -19 13 -30 13 -30 0z"/>
<path d="M90 1235 c0 -8 5 -15 10 -15 6 0 10 7 10 15 0 8 -4 15 -10 15 -5 0
-10 -7 -10 -15z"/>
<path d="M1341 1164 c0 -11 3 -14 6 -6 3 7 2 16 -1 19 -3 4 -6 -2 -5 -13z"/>
<path d="M230 1162 c0 -5 7 -13 16 -16 10 -4 14 -1 12 6 -5 15 -28 23 -28 10z"/>
<path d="M165 1150 c3 -5 15 -10 26 -10 11 0 17 5 14 10 -3 6 -15 10 -26 10
-11 0 -17 -4 -14 -10z"/>
<path d="M410 1040 c0 -5 5 -10 10 -10 6 0 10 5 10 10 0 6 -4 10 -10 10 -5 0
-10 -4 -10 -10z"/>
</g>
</svg>
