<?xml version="1.0" standalone="no"?>
<!DOCTYPE svg PUBLIC "-//W3C//DTD SVG 20010904//EN"
 "http://www.w3.org/TR/2001/REC-SVG-20010904/DTD/svg10.dtd">
<svg version="1.0" xmlns="http://www.w3.org/2000/svg"
 width="856.000000pt" height="856.000000pt" viewBox="0 0 856.000000 856.000000"
 preserveAspectRatio="xMidYMid meet">
<metadata>
Created by potrace 1.11, written by Peter Selinger 2001-2013
</metadata>
<g transform="translate(0.000000,856.000000) scale(0.100000,-0.100000)"
fill="#000000" stroke="none">
<path d="M3460 6766 c-70 -15 -166 -58 -255 -115 -85 -54 -280 -209 -354 -282
-14 -14 -62 -57 -106 -95 -44 -38 -87 -75 -95 -83 -15 -14 -137 -104 -175
-129 -21 -13 -142 -72 -148 -72 -2 0 0 17 6 38 25 92 -72 163 -175 128 -76
-27 -138 -102 -138 -168 0 -36 0 -36 431 -643 600 -846 759 -1063 796 -1086
48 -30 90 -30 184 0 l88 29 25 -27 c14 -14 37 -37 53 -51 15 -14 35 -36 43
-48 8 -13 36 -37 63 -54 26 -17 47 -36 47 -42 0 -22 54 -66 82 -66 20 0 39
-12 69 -45 27 -30 55 -49 82 -56 22 -6 50 -17 61 -25 12 -7 39 -16 61 -20 64
-10 103 -31 124 -66 45 -76 69 -77 142 -9 37 34 67 53 99 61 25 6 56 19 70 28
14 9 27 17 30 18 3 0 23 4 44 9 26 5 55 23 89 56 35 33 59 49 77 49 27 0 80
45 80 68 0 6 12 18 28 27 37 20 62 43 95 86 14 19 37 41 51 48 13 7 30 24 37
37 15 30 26 30 119 -1 130 -43 169 -33 247 67 40 52 269 367 459 633 24 33 51
71 61 85 10 14 113 160 230 325 117 165 219 309 227 320 90 123 178 254 182
273 23 89 -84 202 -192 202 -82 0 -137 -68 -116 -144 l10 -35 -26 12 c-107 46
-218 120 -341 226 -42 36 -78 68 -81 71 -6 6 -181 161 -228 202 -174 151 -378
263 -502 275 -127 12 -196 -33 -249 -162 -40 -98 -49 -108 -45 -55 1 22 -1 40
-4 41 -4 0 -15 2 -24 4 -18 3 -30 -17 -22 -39 3 -8 0 -17 -6 -21 -6 -4 -11 -1
-9 6 1 8 1 29 0 47 -1 26 -5 33 -18 30 -16 -3 -18 -16 -19 -96 -1 -51 1 -94 5
-96 16 -10 30 12 32 52 2 23 7 42 12 42 5 0 6 -13 2 -29 -5 -22 -2 -32 10 -39
15 -8 1 -46 -111 -316 -70 -168 -130 -304 -133 -300 -3 3 -6 41 -6 84 0 93
-15 119 -39 71 -9 -17 -23 -31 -31 -31 -19 0 -20 -2 14 70 46 97 32 173 -47
254 -51 53 -80 72 -93 59 -8 -8 -7 -13 0 -17 17 -11 13 -66 -9 -111 -14 -29
-36 -52 -70 -73 -28 -17 -55 -43 -62 -57 -6 -14 -15 -25 -19 -25 -9 0 8 45 24
68 7 8 4 12 -9 12 -10 0 -39 -22 -65 -49 -57 -60 -72 -118 -47 -188 11 -29 12
-45 5 -52 -14 -14 -27 -14 -27 -1 0 9 -74 191 -121 298 -11 23 -38 88 -60 144
-22 55 -47 114 -55 129 -12 25 -12 29 0 29 17 0 26 22 21 50 -2 11 0 20 6 20
5 0 8 -20 7 -45 -1 -50 2 -58 24 -50 22 9 23 184 2 192 -21 8 -26 -1 -26 -41
0 -20 -4 -38 -8 -41 -5 -3 -7 7 -6 22 4 32 -7 43 -35 36 -15 -4 -19 -15 -19
-47 0 -40 -1 -39 -35 43 -19 47 -47 97 -61 112 -54 56 -136 75 -234 55z"/>
<path d="M3923 6603 c-9 -3 -13 -28 -13 -75 l0 -70 33 7 c46 9 707 13 707 3 0
-4 14 -8 30 -8 l30 0 0 70 c0 39 -3 70 -7 71 -5 0 -16 2 -25 4 -10 2 -20 -1
-24 -6 -6 -10 -677 -13 -688 -2 -9 9 -27 11 -43 6z m727 -51 c0 -4 -153 -8
-340 -8 -187 -1 -340 2 -340 6 0 5 153 8 340 9 187 0 340 -3 340 -7z m-4 -35
c9 -9 36 -8 -326 -8 -365 -1 -352 -1 -347 9 6 9 664 9 673 -1z"/>
<path d="M5109 3421 c-1 -3 -3 -24 -4 -46 -1 -22 -3 -47 -4 -57 -1 -13 -13
-16 -73 -16 -149 0 -138 4 -138 -47 l0 -45 62 0 62 0 -27 -27 c-61 -65 -71
-166 -23 -247 97 -167 368 -159 455 13 38 74 30 155 -24 224 l-27 36 58 3 58
3 0 43 c1 48 13 44 -136 44 l-77 0 -3 61 -3 61 -77 1 c-43 1 -79 -1 -79 -4z
m157 -298 c35 -74 11 -183 -47 -214 -54 -28 -116 31 -125 118 -15 141 115 214
172 96z"/>
<path d="M2959 3410 c-1 -3 -3 -29 -4 -57 -1 -29 -5 -56 -9 -60 -3 -4 -51 -6
-106 -4 l-100 2 0 -49 0 -49 43 0 c82 -2 85 -2 64 -14 -11 -6 -29 -34 -42 -61
-91 -196 133 -388 344 -297 137 58 186 220 102 337 -11 17 -21 32 -21 34 0 2
24 3 52 3 l52 0 2 35 c2 61 1 62 -110 59 l-101 -3 -2 58 c0 32 -4 60 -7 64 -8
7 -155 9 -157 2z m157 -303 c45 -99 -10 -232 -90 -219 -100 17 -111 236 -14
276 29 12 36 12 60 -2 14 -8 35 -33 44 -55z"/>
<path d="M2310 3333 l0 -73 -74 0 -74 0 0 51 c-1 28 -3 53 -6 56 -4 4 -192 5
-439 3 l-58 0 3 -47 3 -48 157 0 c180 1 172 5 152 -91 -14 -72 -33 -110 -74
-158 -62 -70 -191 -130 -290 -135 -8 -1 7 -17 34 -36 55 -39 82 -39 190 -3
127 42 229 130 282 244 l33 71 81 0 80 1 0 -59 c0 -49 -3 -59 -17 -60 -10 0
-56 -1 -103 -2 l-84 -2 -1 -45 0 -45 103 0 102 0 0 -62 c0 -43 4 -63 13 -64 6
-1 44 -2 83 -3 l71 -1 -1 290 -1 290 -82 0 -83 1 0 -73z"/>
<path d="M3427 3397 c-2 -7 -3 -151 -3 -321 l1 -308 -25 -10 c-36 -14 -63 -16
-380 -17 l-285 -1 -2 -42 c-1 -24 2 -45 7 -48 10 -6 554 -4 595 3 17 3 42 10
58 16 15 6 27 7 28 3 1 -4 2 -70 3 -147 l1 -140 83 -1 82 0 0 512 0 512 -79 0
c-51 0 -81 -4 -84 -11z"/>
<path d="M4289 3391 c0 -9 -1 -122 0 -251 0 -129 -2 -245 -5 -257 -3 -16 -14
-24 -41 -29 -58 -11 -234 -10 -241 1 -11 17 -8 406 3 413 6 4 53 7 105 7 l95
0 0 45 0 45 -185 0 -185 0 0 -277 0 -278 28 -27 c27 -28 28 -28 186 -31 127
-3 166 0 196 12 21 9 39 16 40 16 1 0 2 -89 2 -197 l0 -198 79 0 79 0 1 305
c1 168 2 314 3 326 1 20 16 23 86 15 7 -1 10 -113 10 -323 l0 -323 79 0 80 0
0 495 c1 272 -1 503 -3 513 -3 15 -14 17 -80 15 l-76 -3 -1 -130 c-1 -71 -2
-133 -3 -137 -2 -14 -91 -9 -92 5 -1 6 -2 68 -3 137 l-1 125 -77 1 c-66 2 -78
-1 -79 -15z"/>
<path d="M5570 3111 l0 -298 80 1 c63 0 81 4 84 16 2 8 3 72 3 143 l-2 127 25
1 c14 1 51 1 83 0 47 0 57 2 58 17 0 9 1 31 2 49 l2 31 -77 0 c-42 0 -80 2
-85 5 -5 3 -8 51 -7 106 l1 101 -83 0 -84 0 0 -299z"/>
<path d="M6114 3372 l-62 -3 2 -47 1 -47 280 -1 c154 -1 283 -2 286 -3 4 0 5
-106 4 -233 -3 -224 -12 -316 -37 -346 -9 -11 3 -12 68 -10 l79 3 26 80 c26
79 27 84 25 343 l-1 264 -305 1 c-168 1 -333 1 -366 -1z"/>
<path d="M6140 2819 c1 -111 -1 -204 -4 -206 -3 -3 -39 -5 -80 -4 l-76 1 0
-48 0 -49 455 0 455 0 0 49 0 48 -164 -1 c-90 -1 -168 1 -173 4 -4 3 -8 96 -8
206 l1 201 -81 0 -80 0 0 -196 c0 -108 -2 -199 -5 -204 -6 -9 -25 -13 -57 -11
-21 1 -22 3 -21 184 0 100 0 192 -1 205 -1 21 -5 22 -81 22 l-80 0 0 -201z"/>
<path d="M2065 2813 c-157 -47 -228 -192 -161 -326 71 -142 284 -190 423 -95
205 139 109 417 -149 432 -38 3 -83 -2 -113 -11z m150 -105 c74 -58 73 -188
-1 -247 -114 -89 -229 117 -130 232 37 43 88 49 131 15z"/>
<path d="M5005 2736 c-2 -6 -3 -27 -2 -46 l2 -35 245 -2 c135 -1 262 -2 283
-3 l37 0 0 -133 0 -134 83 1 82 1 0 180 0 180 -364 1 c-245 0 -364 -3 -366
-10z"/>
<path d="M3011 2158 c-50 -14 -80 -37 -100 -77 -53 -105 32 -213 161 -205 76
6 78 7 78 63 0 37 5 53 18 60 20 12 17 13 -60 15 -45 2 -58 -1 -58 -13 0 -8 3
-11 6 -8 17 16 39 -13 38 -48 -2 -39 -19 -58 -42 -50 -8 3 -20 5 -27 5 -24 0
-57 59 -62 109 -8 80 38 142 101 135 31 -3 66 -30 66 -51 0 -7 5 -13 10 -13 6
0 10 15 10 34 0 25 -5 36 -19 41 -35 11 -85 12 -120 3z"/>
<path d="M6014 2155 c-33 -14 -63 -49 -60 -68 7 -39 22 -59 66 -86 56 -35 75
-75 46 -97 -10 -7 -28 -11 -39 -8 -21 4 -27 10 -62 59 -13 19 -14 18 -11 -15
2 -19 4 -38 5 -42 2 -11 55 -25 85 -22 48 5 81 36 84 78 4 44 -14 68 -70 97
-52 26 -64 53 -38 79 27 27 36 25 71 -12 l30 -33 -3 33 c-1 19 -5 35 -9 37
-18 12 -68 12 -95 0z"/>
<path d="M6359 2168 c-1 -2 -2 -20 -3 -40 -2 -39 10 -51 21 -20 8 22 23 32 49
32 21 0 22 -4 23 -116 0 -108 -1 -116 -19 -121 -41 -11 -18 -21 51 -22 46 -1
68 2 64 9 -3 5 -13 10 -21 10 -16 0 -16 -4 -18 115 -2 118 0 126 35 123 21 -2
31 -9 38 -30 14 -40 21 -35 21 18 0 32 -3 43 -12 38 -14 -9 -204 -7 -218 1 -6
4 -10 5 -11 3z"/>
<path d="M1630 2153 c0 -3 7 -11 16 -17 23 -18 24 -214 0 -231 -27 -21 -18
-25 51 -24 65 1 66 2 44 19 -18 13 -24 27 -24 58 0 23 2 45 6 48 3 3 21 -15
39 -42 52 -76 63 -84 111 -84 l42 0 -30 28 c-56 51 -105 123 -96 141 15 27 83
91 98 91 7 0 13 4 13 9 0 4 -25 8 -55 9 -30 0 -55 -4 -55 -9 0 -5 7 -9 16 -9
13 0 13 -3 1 -20 -8 -11 -29 -37 -48 -57 l-33 -37 -7 24 c-8 32 -1 70 19 92
14 16 11 18 -47 17 -33 -1 -61 -4 -61 -6z"/>
<path d="M1930 2150 c0 -6 6 -10 14 -10 24 0 89 -129 91 -179 1 -45 -17 -77
-37 -65 -7 4 -8 2 -4 -4 8 -14 136 -17 136 -3 0 5 -8 11 -19 14 -46 12 -5 167
61 228 l27 27 -54 0 c-30 0 -52 -4 -49 -9 3 -5 12 -9 20 -9 8 0 14 -2 14 -5 0
-9 -45 -94 -50 -95 -3 0 -16 20 -29 45 -18 35 -21 48 -12 59 10 12 2 14 -49
15 -33 0 -60 -4 -60 -9z"/>
<path d="M2230 2149 c0 -5 7 -9 15 -9 17 0 16 4 19 -110 2 -47 8 -95 14 -106
16 -31 68 -52 115 -48 74 8 97 47 97 169 0 67 3 87 15 91 31 12 13 24 -35 23
-27 -1 -50 -3 -50 -5 0 -2 9 -13 19 -23 16 -16 19 -32 17 -98 -3 -106 -23
-136 -84 -125 -34 6 -45 38 -48 127 -2 81 8 121 28 109 6 -4 8 -3 4 4 -8 13
-126 15 -126 1z"/>
<path d="M2555 2150 c3 -6 12 -10 19 -10 18 0 23 -42 20 -143 -2 -61 -7 -84
-19 -93 -9 -7 -12 -14 -8 -17 15 -9 103 -6 97 4 -3 5 -11 9 -19 9 -18 0 -22
15 -24 105 l-1 80 27 -30 c16 -17 48 -55 73 -85 103 -124 105 -124 106 35 0
108 2 127 18 138 16 11 11 13 -38 15 -34 0 -54 -3 -51 -8 4 -6 12 -10 20 -10
16 0 23 -34 23 -110 l0 -55 -55 60 c-31 33 -66 74 -80 91 -20 27 -30 32 -69
32 -26 1 -42 -3 -39 -8z"/>
<path d="M3290 2149 c0 -3 9 -9 20 -12 18 -5 20 -14 20 -117 0 -103 -2 -112
-20 -117 -37 -10 -11 -21 50 -22 33 0 60 4 60 9 0 6 -7 10 -15 10 -14 0 -17
14 -17 65 0 53 0 53 56 53 l54 -1 4 -49 c3 -43 0 -52 -21 -68 -24 -17 -24 -17
42 -19 44 -1 68 3 73 11 4 7 4 10 -1 6 -4 -4 -14 -3 -22 3 -9 8 -13 42 -13
125 0 108 1 114 21 114 11 0 18 4 15 9 -8 12 -126 13 -126 2 0 -5 8 -12 18
-15 13 -4 17 -17 17 -51 l0 -45 -57 0 c-32 0 -59 5 -59 10 -6 49 1 90 16 90 8
0 15 4 15 10 0 5 -29 8 -65 8 -36 -1 -65 -5 -65 -9z"/>
<path d="M3645 2151 c-2 -5 3 -11 13 -13 16 -5 18 -17 16 -114 -2 -131 -1
-124 -19 -124 -8 0 -15 -4 -15 -10 0 -5 44 -8 107 -7 l107 2 7 33 c4 18 3 35
-2 38 -5 3 -9 0 -9 -5 0 -21 -41 -51 -69 -51 -37 0 -45 13 -47 68 -1 41 0 42
31 42 21 0 35 -6 39 -16 10 -26 22 -7 20 33 -3 50 -2 49 -17 30 -15 -22 -63
-32 -69 -15 -3 7 -4 31 -4 53 1 30 5 41 19 43 32 6 65 -7 72 -28 8 -27 26 -15
21 13 -3 12 -5 25 -5 28 -1 10 -190 9 -196 0z"/>
<path d="M3910 2149 c0 -5 7 -9 15 -9 11 0 15 -12 16 -47 2 -185 1 -193 -27
-193 -8 0 -14 -4 -14 -8 0 -5 49 -10 110 -11 l109 -1 7 35 c8 45 -1 56 -17 21
-13 -28 -41 -40 -80 -34 -19 2 -25 11 -30 41 -3 21 -2 40 3 43 4 3 6 10 3 15
-4 5 10 9 29 9 25 0 36 -4 36 -15 0 -8 5 -15 10 -15 6 0 10 21 10 48 -1 40 -2
45 -13 30 -7 -9 -24 -19 -38 -23 -20 -5 -27 -2 -35 17 -5 13 -8 38 -6 56 3 25
8 32 25 32 37 0 67 -12 67 -26 0 -7 5 -16 10 -19 6 -4 10 8 10 29 l0 35 -100
-1 c-55 -1 -100 -5 -100 -9z"/>
<path d="M4250 2151 c0 -5 6 -11 13 -14 10 -4 14 -29 15 -87 2 -108 14 -144
55 -161 66 -27 129 -13 154 35 10 20 17 61 18 116 3 106 2 100 21 100 8 0 12
5 9 10 -8 12 -105 11 -105 -2 0 -4 6 -8 14 -8 18 0 26 -32 26 -112 0 -71 -14
-117 -37 -119 -48 -4 -58 -1 -76 23 -15 20 -20 45 -22 113 -2 78 0 88 16 92
39 11 17 23 -41 23 -33 0 -60 -4 -60 -9z"/>
<path d="M4590 2133 c16 -21 19 -40 18 -111 -1 -102 -5 -122 -25 -122 -8 0
-12 -4 -8 -9 7 -12 105 -10 105 1 0 4 -6 8 -14 8 -8 0 -18 5 -22 11 -8 14 -14
169 -5 168 3 0 23 -21 45 -47 159 -194 154 -193 156 -44 0 64 1 125 1 135 0 9
7 17 15 17 8 0 14 5 14 10 0 6 -22 10 -50 10 -27 0 -50 -4 -50 -10 0 -5 9 -10
19 -10 16 0 20 -9 23 -57 1 -32 2 -71 0 -86 l-4 -29 -21 30 c-12 16 -48 59
-80 95 -54 60 -62 66 -98 65 l-39 0 20 -25z"/>
<path d="M4910 2149 c0 -5 7 -9 15 -9 18 0 17 7 19 -115 2 -111 0 -125 -20
-125 -8 0 -14 -4 -14 -9 0 -11 117 -14 124 -2 3 5 -3 11 -13 14 -17 4 -18 15
-17 117 1 102 3 114 20 120 12 4 15 9 9 13 -16 10 -123 6 -123 -4z"/>
<path d="M5064 2148 c-3 -4 2 -8 10 -8 19 0 43 -46 86 -165 18 -49 35 -93 39
-98 15 -16 39 24 85 141 30 75 53 122 62 122 8 0 14 4 14 8 0 5 -22 10 -50 11
-28 1 -50 -3 -50 -9 0 -5 7 -10 15 -10 8 0 15 -4 15 -8 0 -9 -29 -95 -50 -147
l-12 -30 -32 85 c-27 70 -31 87 -19 96 7 6 13 14 13 18 0 10 -120 5 -126 -6z"/>
<path d="M5385 2150 c-3 -6 3 -10 14 -10 20 0 21 -6 21 -114 0 -107 -1 -115
-22 -129 -21 -14 -15 -15 84 -16 112 -1 119 2 126 47 4 29 -12 28 -32 -3 -12
-19 -25 -25 -52 -25 -37 0 -53 21 -48 64 1 11 3 27 3 34 1 18 71 16 71 -3 0
-8 5 -15 10 -15 6 0 10 18 10 39 0 22 -4 43 -10 46 -5 3 -10 -1 -10 -9 0 -9
-6 -17 -12 -17 -7 -1 -25 -3 -39 -4 -24 -3 -25 -1 -23 38 2 23 3 48 3 55 1 9
13 12 39 10 27 -2 40 -9 47 -25 14 -33 27 -28 23 10 l-3 32 -97 2 c-54 1 -100
-2 -103 -7z"/>
<path d="M5666 2142 c18 -15 20 -27 18 -112 -2 -130 -2 -130 -19 -130 -8 0
-15 -4 -15 -8 0 -5 30 -9 68 -10 65 -1 66 -1 44 16 -17 13 -22 26 -20 60 2 54
19 54 48 -1 28 -52 76 -88 113 -85 31 3 35 14 9 22 -10 3 -34 32 -54 63 -36
55 -36 57 -18 70 36 25 42 50 25 87 -19 39 -41 46 -150 45 -66 -1 -68 -2 -49
-17z m133 -16 c16 -20 17 -72 1 -91 -7 -8 -23 -15 -36 -15 -21 0 -23 4 -22 53
0 28 2 55 5 60 7 12 40 8 52 -7z"/>
<path d="M6180 2152 c0 -3 7 -10 15 -16 23 -17 23 -215 1 -232 -26 -18 -19
-22 44 -23 33 0 60 4 60 9 0 6 -7 10 -15 10 -12 0 -15 19 -15 114 0 107 1 115
23 129 21 14 18 15 -45 15 -38 -1 -68 -3 -68 -6z"/>
<path d="M6620 2151 c0 -5 9 -11 20 -14 11 -3 23 -13 27 -24 3 -10 18 -38 32
-63 33 -58 39 -140 10 -147 -10 -3 -19 -9 -19 -15 0 -11 129 -8 136 3 3 5 -4
9 -15 9 -12 0 -22 3 -22 8 -9 59 -3 93 27 154 20 39 42 69 54 73 35 11 22 21
-30 22 -27 1 -50 -3 -50 -8 0 -5 7 -9 15 -9 8 0 15 -2 15 -5 0 -10 -40 -84
-48 -89 -4 -2 -19 16 -32 41 -18 33 -21 48 -12 51 30 10 7 19 -48 21 -33 0
-60 -3 -60 -8z"/>
</g>
</svg>
